<svg xmlns="http://www.w3.org/2000/svg" xmlns:xlink="http://www.w3.org/1999/xlink" viewBox="0 0 400 300" width="406" height="306" class="illustration styles_illustrationTablet__1DWOa"><defs><linearGradient id="linear-gradient" x1="307.44" y1="207.66" x2="310.49" y2="201.4" gradientUnits="userSpaceOnUse"><stop offset="0" stop-color="#fff" stop-opacity="0"></stop><stop offset="1" stop-color="#f15a24"></stop></linearGradient><linearGradient id="linear-gradient-2" x1="84.15" y1="175.81" x2="108.51" y2="151.99" xlink:href="#linear-gradient"></linearGradient><linearGradient id="linear-gradient-3" x1="146.9" y1="275.87" x2="184.46" y2="226.14" xlink:href="#linear-gradient"></linearGradient><linearGradient id="linear-gradient-4" x1="38.87" y1="199.43" x2="54.32" y2="188.49" xlink:href="#linear-gradient"></linearGradient></defs><title>PP_</title><g style="isolation: isolate;"><g id="Layer_2" data-name="Layer 2"><path d="M186.67,288.42l-165.77-98c-5.28-3-9.8-7.83-4.66-11L182.61,83.55c2.5-1.55,6.29-2.56,8.82-1.09l174,101c5.28,3.06,6.22,11.63.94,14.69L208.52,288.26A22,22,0,0,1,186.67,288.42Z" fill="#ffb7a6"></path><path d="M310.29,191.47c-5,3.91-10.23,7.52-15.5,11.05l13,7.62,19.61-12.4Z" opacity="0.63" fill="url(#linear-gradient)" style="mix-blend-mode: multiply;"></path><path d="M305.42,172.61s-2.68,23,9.51,27.5,18.71-7.14,18.9-27.5" fill="#06577a"></path><ellipse cx="319.62" cy="172.61" rx="14.21" ry="8.21" fill="#f2696a"></ellipse><path d="M323.26,154.35s-5.58-8.05-3.14-13.62c0,0,2-3.58,4.85-4.14,0,0-.28,7.63,2.56,6.66s0-8,0-8,3-4,6.25-3.91,0,7.14,2.27,6,.14-7.13,2.7-7.84a53.69,53.69,0,0,1,7.1-1.14s2.42,7,0,8-6,1.33-4.26,2.87,6.54-.23,6.54-.23.3,3.92-1.34,5.61-11.3-2.05-9.6,1.31,8.1,1.68,8.1,1.68-3.27,4.67-7.1,6.8S323.26,154.35,323.26,154.35Z" fill="#8ccc00"></path><path d="M324.57,174.49s-4-4-3.24-7.39c0,0,.76-2.24,2.31-2.87,0,0,.65,4.36,2.16,3.51s-.85-4.53-.85-4.53,1.26-2.61,3.13-2.89.76,4.05,1.93,3.15-.68-4.06.7-4.74a31,31,0,0,1,3.91-1.4s2.11,3.69.85,4.52-3.25,1.39-2.11,2.08,3.69-.83,3.69-.83.59,2.19-.16,3.33-6.64,0-5.31,1.77,4.78.09,4.78.09A15.12,15.12,0,0,1,333,172.9C331.09,174.52,324.57,174.49,324.57,174.49Z" fill="#8ccc00"></path><path d="M309.76,165.9s-9.79.38-13.17-4.66c0,0-1.94-3.61-.89-6.32,0,0,6.28,4.34,7,1.42s-6.74-4.29-6.74-4.29-1.81-4.69.06-7.38,6,3.83,6.26,1.29-5.94-3.95-5.16-6.49a53.69,53.69,0,0,1,2.86-6.6s7.17,1.7,6.71,4.28-2.08,5.75.13,5.14,3.32-5.64,3.32-5.64,3.47,1.85,4,4.15-7.81,8.43-4.05,8.8,5.77-5.93,5.77-5.93,2.18,5.27,1.92,9.65S309.76,165.9,309.76,165.9Z" fill="#8ccc00"></path><path d="M343.73,131.43q-1.55,1.32-3.13,2.68c.11-1.11.24-2.21.41-3.31.09-.58-.8-.83-.89-.25q-.35,2.21-.53,4.44c-2.74,2.41-5.47,4.92-8,7.59a33,33,0,0,1-.17-5.65c0-.59-.89-.59-.92,0a34,34,0,0,0,.27,6.53,64,64,0,0,0-4.55,5.49,18.32,18.32,0,0,1-3.17-7.39c-.11-.58-1-.34-.89.25a19,19,0,0,0,3.42,7.83.47.47,0,0,0,.09.08c-4.07,5.76-6.87,12.23-7.1,19.72,0,.6.91.59.92,0,.23-7.21,2.91-13.46,6.81-19a35.66,35.66,0,0,0,11.46,1.12c.59,0,.6-1,0-.92a34.94,34.94,0,0,1-10.89-1,67.07,67.07,0,0,1,6.44-7.48l.08,0c2.16.19,4.32.38,6.48.46a7.91,7.91,0,0,0,4-.47c.53-.27.06-1.07-.47-.8-1.49.75-3.58.35-5.18.26-1.37-.08-2.74-.2-4.11-.32,3.3-3.26,6.83-6.3,10.24-9.19C344.84,131.7,344.18,131,343.73,131.43Z" fill="#06577a"></path><path d="M315.08,149.43a.46.46,0,0,0-.89-.25,16.38,16.38,0,0,1-5.93,8.53q-1.57-4.36-2.88-8.82a27.62,27.62,0,0,0,5.42-7.66c.26-.53-.54-1-.8-.47a26.91,26.91,0,0,1-4.93,7.09c-1-3.4-1.82-6.84-2.54-10.31-.12-.58-1-.34-.89.25q1.47,7.12,3.64,14.05a21.69,21.69,0,0,1-5-1.65c-.54-.25-1,.54-.47.8a22.69,22.69,0,0,0,5.84,1.86h0c1,3,2.07,6,3.24,9a22.36,22.36,0,0,1-8-1.77c-.54-.23-1,.57-.47.8a23.59,23.59,0,0,0,8.87,1.91q2.23,5.56,4.9,10.94c.27.53,1.06.06.8-.47a144.32,144.32,0,0,1-6.34-14.68h0A17.39,17.39,0,0,0,315.08,149.43Z" fill="#06577a"></path><path d="M331.82,161.38l-2.54,4.27a8,8,0,0,1-.81-1.33c-.26-.54-1.05-.07-.8.47a8.81,8.81,0,0,0,1.06,1.68l0,0L326,171.12a1.89,1.89,0,0,1-.57-1.11c-.07-.58-1-.59-.92,0a2.91,2.91,0,0,0,1,1.9l-3.45,5.79a.46.46,0,0,0,.8.47l4.55-7.63a6.91,6.91,0,0,0,2.25-.34c.56-.18.32-1.08-.25-.89a6.15,6.15,0,0,1-1.43.27l4.61-7.73A.46.46,0,0,0,331.82,161.38Z" fill="#06577a"></path><polyline points="145.86 150.79 59.73 201.74 35.89 187.69 97.27 151.68" opacity="0.63" fill="url(#linear-gradient-2)" style="mix-blend-mode: multiply;"></polyline><path d="M121.23,164.77V137.25l24.63-13.76v27.29Z" fill="#eca016"></path><path d="M121.23,137.25l-24-13.76s-.67,27.74,0,28.18,24,13.09,24,13.09Z" fill="#ffb72f"></path><polygon points="97.27 123.5 121.23 108.85 145.86 123.5 121.23 137.25 97.27 123.5" fill="#ffc863"></polygon><polygon points="106.39 117.92 131.34 131.6 131.34 145.97 138.52 142.34 138.52 127.6 113.57 113.53 106.39 117.92" fill="#fdedcb"></polygon><polyline points="230.83 261.69 188.85 289.48 102 238.38 148.23 213.12" opacity="0.63" fill="url(#linear-gradient-3)" style="mix-blend-mode: multiply;"></polyline><path d="M187.91,13.44c16.43,10.29,57.74,34.19,71.83,42.83,3.19,2,3.68,4.87,3.73,8.62l0,174.85a5.58,5.58,0,0,1-7.18,1.1l-69.33-39.18c-3.45-2-6.16-4.12-6.16-8.12l.6-176.93C181.38,12.78,184.66,11.41,187.91,13.44Z" fill="#68e1fd"></path><path d="M181.51,15.36l22.54,13v4.87a2.34,2.34,0,0,0,1.17,2l17.44,10.08A1.54,1.54,0,0,0,225,44V40.46l32.75,19.2a2.08,2.08,0,0,1,1,1.79V236.29a1.41,1.41,0,0,1-2.12,1.22l-75.85-44a7.52,7.52,0,0,0,3.34,7c3.93,2.51,73,41.6,73,41.6s5.46,2.47,7.06-4.05V62.18a7.2,7.2,0,0,0-3-5.84C258.08,54,187.6,13.08,187.6,13.08S182.64,10.77,181.51,15.36Z" fill="#124577"></path><path d="M168.66,51.38v16a6.28,6.28,0,0,0,4.76,5.31c4.33,1,4.92-4.72,4.92-4.72V56.16Z" fill="#c13d3d"></path><path d="M178.09,57.74l.4,16.85a6.28,6.28,0,0,0,4.76,5.31c4.33,1,4.92-4.72,4.92-4.72V63.37Z" fill="#dd842a"></path><path d="M188.17,63.47v16a6.28,6.28,0,0,0,4.76,5.31c4.33,1,4.92-4.72,4.92-4.72V68.25Z" fill="#c13d3d"></path><path d="M197.85,69.31v16a6.28,6.28,0,0,0,4.76,5.31c4.33,1,4.92-4.72,4.92-4.72V74.09Z" fill="#dd842a"></path><path d="M207.53,74.19v16a6.28,6.28,0,0,0,4.76,5.31c4.33,1,4.92-4.72,4.92-4.72V79Z" fill="#c13d3d"></path><path d="M217.05,80.73v16a6.28,6.28,0,0,0,4.76,5.31c4.33,1,4.92-4.72,4.92-4.72V85.51Z" fill="#dd842a"></path><polyline points="217.05 81.54 240.05 49.12 248.91 54.54 226.74 87.26" fill="#f29d40"></polyline><polyline points="207.53 75.86 230.1 43.46 240.05 49.12 217.05 81.54" fill="#e04f4f"></polyline><polyline points="197.85 70.16 221.3 38.04 230.1 43.46 207.54 75.94" fill="#f29d40"></polyline><polyline points="188.17 64.27 210.93 32.21 221.3 38.04 197.84 70.08" fill="#e04f4f"></polyline><polyline points="178.34 58.23 200.12 26.18 210.93 32.21 188.17 64.27" fill="#f29d40"></polyline><polyline points="168.66 52.36 190.3 20.44 200.12 26.18 178.34 58.23" fill="#e04f4f"></polyline><polyline points="158.98 46.71 181.51 15.36 190.3 20.44 168.66 52.36" fill="#f29d40"></polyline><path d="M257.72,59.66s1,.21,1,2V92.48l-25.13,14.37,3.5-22Z" fill="#aa2b2b"></path><path d="M226.74,87.26V101.6a6.28,6.28,0,0,0,4.76,5.31c4.33,1,4.92-4.72,4.92-4.72l-.19-9.43Z" fill="#c13d3d"></path><polyline points="236.23 92.76 257.72 59.66 248.91 54.54 226.74 87.26" fill="#e04f4f"></polyline><path d="M159,46.71V63.52a6.28,6.28,0,0,0,4.76,5.31c4.33,1,4.92-4.72,4.92-4.72V52.3Z" fill="#dd842a"></path><path d="M198.86,133.62s3.58-7.29,3-7.93-2.62,2.23-2.62,2.23,0-7.47-.64-7.59-1,4.66-1,4.66-.7-5.55-1.79-5.55,0,5.3,0,5.3-1.91-3.32-2.55-3.06,1,4.44,1,4.44-1.79-1.5-2-1.12,1.85,5.59,3.19,6.84a13.53,13.53,0,0,1,2.23,2.85" fill="#ffe5d0"></path><path d="M214.79,131.92c.49.36-3.65-1.39-10.91,16.21,0,0-1.91-8.39-2.52-14a8.46,8.46,0,0,0-6.44-1.42c-.11,4.1-.24,20.09,4.23,22.47,5.14,2.73,10.56,3,13.6-4C212.75,151.24,222.61,135.78,214.79,131.92Z" fill="#ba5738"></path><path d="M230.56,151.68l.49.64c1.56-6,1.85-13.23-1.19-18.44-2.8-1.1-5.79-1.29-6.31-1.85l-7.94-.31a2.4,2.4,0,0,0-2,1c-2,2.68-6.93,10.18-5.22,16.89,2.12,8.35,1.42,14.7,1.57,20.77s-7.29,20-6.37,29,27.48,14.57,28.69,9.26c4.3-19,5-28.95,1.16-37.18S230.56,151.68,230.56,151.68Z" fill="#cc7452"></path><path d="M229.85,133.88s5.29,2.21,7.78,13.12,3.58,12.78-6.55,19.33-9,5.77-9,5.77-5.81-3.43-4.73-5.61,13.16-7.85,12.73-11.64-5.91-7.84-5.91-7.84" fill="#cc7452"></path><path d="M229,149.06a.57.57,0,0,0-1.09.3,25.18,25.18,0,0,1,1.2,4.64c.24,2.87-1,4.34-3.17,5.86a41.42,41.42,0,0,1-7.14,3.71.44.44,0,0,0-.27.57.5.5,0,0,0-.24.61,14.2,14.2,0,0,0,3.07,6.22.5.5,0,0,0,.47.16.56.56,0,0,0,.62.28,16.94,16.94,0,0,0,6.44-2.76c.59-.42,0-1.4-.57-1a16.12,16.12,0,0,1-6.07,2.62.55.55,0,0,0-.08-.12,12.86,12.86,0,0,1-2.75-5.63c3.52-1.55,7.24-3.19,9.9-6.07C231.71,155.81,229.86,152.15,229,149.06Z" fill="#ba5738"></path><path d="M177,153l81.79,47.25-28.2,16.65-83.14-47.13Z" fill="#ffa364"></path><path d="M218.24,164.75a25.27,25.27,0,0,1-5.33,2c-1.86.27-3.54-1.42-4.16-.62s2.77,1.22,2,1.77-2.94,1-3.56,2.22-1.42,3.46.44,4.7,4.61-1.24,6.38-2.3,5.65-4,5.65-4S219.15,165.67,218.24,164.75Z" fill="#ffe5d0"></path><polygon points="230.55 216.9 230.55 263.27 258.75 245.52 258.75 200.25 230.55 216.9" fill="#ffbb8d"></polygon><polygon points="147.41 169.78 147.41 212.62 230.55 263.27 230.55 216.9 147.41 169.78" fill="#e58341"></polygon><path d="M217.26,129.18a14,14,0,0,1-.91,4.71c-.83,1.58,2.23,2.16,4.8,1.42s1.33-6.7,1.33-6.7" fill="#ffe5d0"></path><path d="M213.1,120.07s-3.1,8.49-.78,9.81,8.1,0,8.1,0" fill="#e84c1c"></path><path d="M212.39,118.28s-1.1,12,5.13,13.06S225,120,223.76,118.28,214,115.49,212.39,118.28Z" fill="#ffe5d0"></path><path d="M220.42,127.25a5.9,5.9,0,0,0,.65,4.52,14,14,0,0,0,7.78-.43c3.34-7.7-.06-19.46-8.2-20.34s-9.4,3.81-9.86,6.59,1.53,2.54,2.31,2.49C220,119.63,221.88,122.85,220.42,127.25Z" fill="#e84c1c"></path><path d="M74.06,105a4,4,0,0,1,4.33,0c2.4,1.76,2.41,6.58,0,10.79a11.07,11.07,0,0,1-4.32,4.46,4,4,0,0,1-4.33,0c-2.4-1.76-2.41-6.58,0-10.79A11.07,11.07,0,0,1,74.06,105Z" fill="#68e1fd"></path><path d="M74,79.15c6.9-3.54,13.81-3.8,19.08.07.76.56.77,2.1,0,3.44a3.55,3.55,0,0,1-1.38,1.42,1.28,1.28,0,0,1-1.38,0C85.81,80.77,79.9,81,74,84s-11.79,8.85-16.26,16.75a3.55,3.55,0,0,1-1.38,1.42,1.28,1.28,0,0,1-1.38,0c-.77-.56-.77-2.1,0-3.44C60.2,89.5,67.09,82.69,74,79.15Z" fill="#68e1fd"></path><path d="M73.94,65.82c9.51-4.88,19-5.15,26.45.28,1.23.91.35,4-1.37,4.87a1.27,1.27,0,0,1-1.38,0C91,66.08,82.47,66.31,74,70.67S57,83.53,50.34,95.2A3.52,3.52,0,0,1,49,96.62a1.29,1.29,0,0,1-1.39,0c-.76-.56-.77-2.1,0-3.44C54.93,80.17,64.43,70.69,73.94,65.82Z" fill="#68e1fd"></path><path d="M74,91.62c4.34-2.22,8.69-2.39,12,0,1.23.9.35,4-1.37,4.86a1.29,1.29,0,0,1-1.38,0c-2.55-1.87-5.9-1.75-9.24,0A23.6,23.6,0,0,0,64.83,106a3.52,3.52,0,0,1-1.38,1.42,1.29,1.29,0,0,1-1.39,0c-.76-.57-.77-2.11,0-3.44C65.35,98.13,69.68,93.84,74,91.62Z" fill="#68e1fd"></path><path d="M178.27,174.55v-11l9.84-5.5V169Z" fill="#eca016"></path><path d="M178.27,163.56l-9.58-5.5s-.27,11.09,0,11.26,9.58,5.23,9.58,5.23Z" fill="#ffb72f"></path><polygon points="168.69 158.06 178.27 152.2 188.12 158.06 178.27 163.56 168.69 158.06" fill="#ffc863"></polygon><polygon points="172.34 155.83 182.31 161.3 182.31 167.04 185.18 165.59 185.18 159.7 175.21 154.07 172.34 155.83" fill="#fdedcb"></polygon><path d="M45.09,202.77,78.6,183l-24-1.74-24,12.48C34.27,196.36,41.27,200.19,45.09,202.77Z" opacity="0.63" fill="url(#linear-gradient-4)" style="mix-blend-mode: multiply;"></path><path d="M58.83,134c-7.66.53-7.26,12.92-7.78,18.06-.13,1.29,1.86,1.72,2,.42.43-4.28.15-10.08,2.53-13.85.74-1.17,1.61-2.31,3.12-2.41a3.35,3.35,0,0,1,2.5,1c.67.61,1,3,1.14,3.72a30.44,30.44,0,0,1,.13,8c-.14,1.29,1.85,1.72,2,.42C64.88,145.25,65.65,133.48,58.83,134Z" fill="#8ccc00"></path><polyline points="70.28 142.26 72.59 146.1 77.19 147.06 73.74 158.96 63.95 152.63" fill="#dd842a"></polyline><polygon points="46.67 155.32 70.28 142.26 69.52 161.65 51.47 163.38 46.67 155.32" fill="#c13d3d"></polygon><polygon points="55.12 158.2 58.77 194.86 80.84 181.61 77.19 147.06 55.12 158.2" fill="#f29d40"></polygon><polygon points="55.12 158.2 52.63 155.32 46.67 155.32 44.18 187.37 50.59 190.32 58.77 194.86 55.12 158.2" fill="#dd842a"></polygon><path d="M68.69,140.08c-7.68.07-8,12.46-8.84,17.56-.21,1.28,1.75,1.83,2,.54.69-4.25.75-10.06,3.35-13.68,1.07-1.48,2.94-2.73,4.77-1.76,1.65.87,1.67,2.82,1.83,4.45a30.44,30.44,0,0,1-.34,8c-.21,1.28,1.75,1.83,2,.54C74,151.72,75.53,140,68.69,140.08Z" fill="#8ccc00"></path></g></g></svg>